88      a8P          db         88888888ba   88  888b      88         db         
88    ,88'          d88b        88      "8b  ""  8888b     88        d88b        
88  ,88"           d8'`8b       88      ,8P      88 `8b    88       d8'`8b       
88,d88'           d8'  `8b      88aaaaaa8P'  88  88  `8b   88      d8'  `8b      
8888"88,         d8YaaaaY8b     88""""88'    88  88   `8b  88     d8YaaaaY8b     
88P   Y8b       d8""""""""8b    88    `8b    88  88    `8b 88    d8""""""""8b    
88     "88,    d8'        `8b   88     `8b   88  88     `8888   d8'        `8b   
88       Y8b  d8'          `8b  88      `8b  88  88      `888  d8'          `8b  
-------------------------------------------------------------------------------
                    -------------------------------------
              [ Empire.of.Passion.1978.DVDRip.x264.AC3-KARiNA.mkv ]            
                    -------------------------------------

[Synopsis]==================================                                                                

Empire of Passion | Japan / France | 1978 | Directed by Nagisa Oshima
                                  
Also known as Phantom Love, the French/Japanese co-production L'Empire de la Passion follows famed Japanese director Nagisa Oshima's multinational production, the chilling and erotic In the Realm of the Senses, which was banned in several countries and was disqualified from appearing at the Cannes Film Festival. This straightforward Japanese murder-mystery and ghost story, unlike that previous movie, does not focus on eroticism but concerns the aftermath of passion and the fruits of crime. In the story, based on an 1895 incident in rural Japan, Seki (Kazuko Yoshiyuki), a beautiful peasant woman, and her young lover Toyoji (Tatsuya Fuji), conspire to murder her husband when their erotic games get out of hand. After getting the husband drunk, the two lovers kill him and throw his body down an abandoned well, claiming that he has gone to do business in Tokyo. In order to avoid suspicion, the two only see each other seldom. In the meantime, Seki begins seeing visions of her husband, and her grown stepdaughter has dreams of him. Guilt consumes both of them, and their nemesis, in the form of a bumbling police inspector sent to investigate an unrelated murder, pursues them.

[ IMdB: http://www.imdb.com/title/tt0077132/ | Rating: 6.7 / 10 (825 votes) ]
                                     
[ General ]===================================
                                                                  
Complete name                    : Empire.of.Passion.1978.DVDRip.x264.AC3-KARiNA.mkv
Format                           : Matroska
File size                        : 1.76 GiB
Duration                         : 1h 45mn
Overall bit rate                 : 2 389 Kbps
Source                           : Criterion NTSC DVD9

[ Video ]=====================================                                 

Format                           : AVC
Codec ID                         : V_MPEG4/ISO/AVC
Bit rate                         : 1 956 Kbps
Nominal bit rate                 : 2 000 Kbps
Width                            : 720 pixels
Height                           : 480 pixels
Display aspect ratio             : 16/9
Frame rate                       : 23.976 fps
Standard                         : NTSC
Resolution                       : 24 bits
Colorimetry                      : 4:2:0
Scan type                        : Progressive
Bits/(Pixel*Frame)               : 0.236
Stream size                      : 1.44 GiB (82%)
Title                            : Track 1
Writing library                  : x264 core 65

[ Audio ]=====================================                              

[] Track 1

Format                           : AC-3
Codec ID                         : A_AC3
Bit rate mode                    : Constant
Bit rate                         : 192 Kbps
Channel(s)                       : 1 channel
Channel positions                : C
Sampling rate                    : 48.0 KHz
Stream size                      : 145 MiB (8%)
Title                            : Track 1
Language                         : Japanese

[] Track 2 (Dub)

Format                           : AC-3
Codec ID                         : A_AC3
Bit rate mode                    : Constant
Bit rate                         : 192 Kbps
Channel(s)                       : 1 channel
Channel positions                : C
Sampling rate                    : 48.0 KHz
Stream size                      : 145 MiB (8%)
Title                            : Track 2
Language                         : English

[ Subtitles ]=================================

[] Track 1

Format                           : VobSub
Codec ID                         : S_VOBSUB
Title                            : Track 1
Language                         : English

[] Track 2

Format                           : VobSub
Codec ID                         : S_VOBSUB
Title                            : Track 2
Language                         : English

[ Chapters ]==================================

00:00:00.000                     : :Chapter 1
00:04:41.314                     : :Chapter 2
00:07:26.479                     : :Chapter 3
00:09:41.614                     : :Chapter 4
00:13:25.004                     : :Chapter 5
00:15:52.318                     : :Chapter 6
00:20:43.609                     : :Chapter 7
00:24:48.019                     : :Chapter 8
00:29:39.978                     : :Chapter 9
00:35:56.354                     : :Chapter 10
00:38:39.517                     : :Chapter 11
00:44:13.984                     : :Chapter 12
00:48:44.288                     : :Chapter 13
00:52:00.484                     : :Chapter 14
00:58:53.696                     : :Chapter 15
01:04:41.244                     : :Chapter 16
01:10:38.100                     : :Chapter 17
01:16:39.294                     : :Chapter 18
01:18:27.903                     : :Chapter 19
01:24:13.915                     : :Chapter 20
01:27:32.614                     : :Chapter 21
01:34:46.681                     : :Chapter 22
01:41:45.599                     : :Chapter 23
01:45:23.667                     : :Chapter 24

[ KARiNA ]===================================